<mxfile host="65bd71144e">
    <diagram id="p0LbSEu3ZrXP_UhGMu0q" name="Page-1">
        <mxGraphModel dx="1748" dy="958" grid="0" gridSize="10" guides="1" tooltips="1" connect="1" arrows="1" fold="1" page="0" pageScale="1" pageWidth="850" pageHeight="1100" math="0" shadow="0">
            <root>
                <mxCell id="0"/>
                <mxCell id="1" parent="0"/>
                <mxCell id="G_-Ms--PT5xcRwPfffM3-5" value="" style="rounded=0;whiteSpace=wrap;html=1;fontSize=24;" parent="1" vertex="1">
                    <mxGeometry x="111" y="107" width="737" height="423" as="geometry"/>
                </mxCell>
                <mxCell id="33" style="edgeStyle=entityRelationEdgeStyle;html=1;fontSize=20;fontColor=#1BA1E2;dashed=1;strokeColor=#FF6666;" edge="1" parent="1" source="G_-Ms--PT5xcRwPfffM3-1" target="G_-Ms--PT5xcRwPfffM3-21">
                    <mxGeometry relative="1" as="geometry">
                        <mxPoint x="983" y="726" as="targetPoint"/>
                    </mxGeometry>
                </mxCell>
                <mxCell id="G_-Ms--PT5xcRwPfffM3-1" value="&lt;font color=&quot;#ffffff&quot; style=&quot;font-size: 18px;&quot;&gt;NEXT&lt;/font&gt;" style="rounded=1;whiteSpace=wrap;html=1;fillColor=#1ba1e2;strokeColor=#006EAF;fontColor=#ffffff;" parent="1" vertex="1">
                    <mxGeometry x="684" y="440" width="116" height="37" as="geometry"/>
                </mxCell>
                <mxCell id="G_-Ms--PT5xcRwPfffM3-2" value="&lt;font style=&quot;font-size: 24px;&quot;&gt;1&lt;/font&gt;" style="ellipse;whiteSpace=wrap;html=1;aspect=fixed;fillColor=#1ba1e2;fontColor=#ffffff;strokeColor=#006EAF;" parent="1" vertex="1">
                    <mxGeometry x="155" y="235.5" width="40" height="40" as="geometry"/>
                </mxCell>
                <mxCell id="G_-Ms--PT5xcRwPfffM3-3" value="&lt;font style=&quot;font-size: 24px;&quot;&gt;2&lt;/font&gt;" style="ellipse;whiteSpace=wrap;html=1;aspect=fixed;fillColor=#CCCCCC;fontColor=#ffffff;strokeColor=#314354;gradientColor=none;" parent="1" vertex="1">
                    <mxGeometry x="435" y="235.5" width="40" height="40" as="geometry"/>
                </mxCell>
                <mxCell id="G_-Ms--PT5xcRwPfffM3-4" value="&lt;font style=&quot;font-size: 24px;&quot;&gt;3&lt;/font&gt;" style="ellipse;whiteSpace=wrap;html=1;aspect=fixed;fillColor=#CCCCCC;fontColor=#ffffff;strokeColor=#314354;" parent="1" vertex="1">
                    <mxGeometry x="718" y="235.5" width="40" height="40" as="geometry"/>
                </mxCell>
                <mxCell id="G_-Ms--PT5xcRwPfffM3-6" value="&lt;b style=&quot;&quot;&gt;&lt;font style=&quot;font-size: 36px;&quot; color=&quot;#7ea6e0&quot;&gt;SIGN UP&lt;/font&gt;&lt;/b&gt;" style="text;html=1;strokeColor=none;fillColor=none;align=center;verticalAlign=middle;whiteSpace=wrap;rounded=0;fontSize=24;fontColor=#FFFFFF;" parent="1" vertex="1">
                    <mxGeometry x="358.5" y="146" width="242" height="46" as="geometry"/>
                </mxCell>
                <mxCell id="G_-Ms--PT5xcRwPfffM3-8" value="&lt;font color=&quot;#999999&quot; style=&quot;font-size: 18px;&quot;&gt;First name *&lt;/font&gt;" style="rounded=0;whiteSpace=wrap;html=1;fontSize=14;fontColor=#000000;strokeColor=#999999;" parent="1" vertex="1">
                    <mxGeometry x="182" y="342" width="253" height="44" as="geometry"/>
                </mxCell>
                <mxCell id="G_-Ms--PT5xcRwPfffM3-10" value="&lt;font color=&quot;#999999&quot; style=&quot;font-size: 18px;&quot;&gt;Last name *&lt;/font&gt;" style="rounded=0;whiteSpace=wrap;html=1;fontSize=14;fontColor=#000000;strokeColor=#999999;" parent="1" vertex="1">
                    <mxGeometry x="484" y="341.5" width="274" height="45" as="geometry"/>
                </mxCell>
                <mxCell id="G_-Ms--PT5xcRwPfffM3-12" value="&lt;font color=&quot;#666666&quot; style=&quot;font-size: 14px;&quot;&gt;Update Avatar&lt;/font&gt;" style="text;html=1;strokeColor=none;fillColor=none;align=center;verticalAlign=middle;whiteSpace=wrap;rounded=0;fontSize=24;fontColor=#000000;" parent="1" vertex="1">
                    <mxGeometry x="478" y="235.5" width="94" height="35" as="geometry"/>
                </mxCell>
                <mxCell id="G_-Ms--PT5xcRwPfffM3-13" value="&lt;font color=&quot;#666666&quot; style=&quot;font-size: 14px;&quot;&gt;Information&lt;/font&gt;" style="text;html=1;strokeColor=none;fillColor=none;align=center;verticalAlign=middle;whiteSpace=wrap;rounded=0;fontSize=24;fontColor=#000000;" parent="1" vertex="1">
                    <mxGeometry x="193" y="233" width="94" height="35" as="geometry"/>
                </mxCell>
                <mxCell id="G_-Ms--PT5xcRwPfffM3-14" value="&lt;font color=&quot;#666666&quot; style=&quot;font-size: 14px;&quot;&gt;Review&lt;/font&gt;" style="text;html=1;strokeColor=none;fillColor=none;align=center;verticalAlign=middle;whiteSpace=wrap;rounded=0;fontSize=24;fontColor=#000000;" parent="1" vertex="1">
                    <mxGeometry x="758" y="235.5" width="56" height="35" as="geometry"/>
                </mxCell>
                <mxCell id="G_-Ms--PT5xcRwPfffM3-15" value="" style="endArrow=none;html=1;rounded=0;fontSize=14;fontColor=#666666;" parent="1" edge="1">
                    <mxGeometry width="50" height="50" relative="1" as="geometry">
                        <mxPoint x="308" y="257" as="sourcePoint"/>
                        <mxPoint x="402" y="257" as="targetPoint"/>
                    </mxGeometry>
                </mxCell>
                <mxCell id="G_-Ms--PT5xcRwPfffM3-18" value="" style="endArrow=none;html=1;rounded=0;fontSize=14;fontColor=#666666;" parent="1" edge="1">
                    <mxGeometry width="50" height="50" relative="1" as="geometry">
                        <mxPoint x="598" y="255" as="sourcePoint"/>
                        <mxPoint x="692" y="255" as="targetPoint"/>
                    </mxGeometry>
                </mxCell>
                <mxCell id="G_-Ms--PT5xcRwPfffM3-21" value="" style="rounded=0;whiteSpace=wrap;html=1;fontSize=24;" parent="1" vertex="1">
                    <mxGeometry x="113" y="691" width="737" height="734" as="geometry"/>
                </mxCell>
                <mxCell id="34" style="edgeStyle=entityRelationEdgeStyle;html=1;dashed=1;fontSize=20;fontColor=#1BA1E2;strokeColor=#FF6666;" edge="1" parent="1" source="G_-Ms--PT5xcRwPfffM3-22" target="G_-Ms--PT5xcRwPfffM3-35">
                    <mxGeometry relative="1" as="geometry"/>
                </mxCell>
                <mxCell id="G_-Ms--PT5xcRwPfffM3-22" value="&lt;font color=&quot;#ffffff&quot; style=&quot;font-size: 18px;&quot;&gt;NEXT&lt;/font&gt;" style="rounded=1;whiteSpace=wrap;html=1;fillColor=#1ba1e2;strokeColor=#006EAF;fontColor=#ffffff;" parent="1" vertex="1">
                    <mxGeometry x="691" y="1346" width="116" height="37" as="geometry"/>
                </mxCell>
                <mxCell id="G_-Ms--PT5xcRwPfffM3-23" value="&lt;font style=&quot;font-size: 24px&quot;&gt;V&lt;/font&gt;" style="ellipse;whiteSpace=wrap;html=1;aspect=fixed;fillColor=#1ba1e2;fontColor=#ffffff;strokeColor=#006EAF;" parent="1" vertex="1">
                    <mxGeometry x="157" y="819.5" width="40" height="40" as="geometry"/>
                </mxCell>
                <mxCell id="G_-Ms--PT5xcRwPfffM3-24" value="&lt;font style=&quot;font-size: 24px;&quot;&gt;2&lt;/font&gt;" style="ellipse;whiteSpace=wrap;html=1;aspect=fixed;fillColor=#1ba1e2;fontColor=#ffffff;strokeColor=#006EAF;" parent="1" vertex="1">
                    <mxGeometry x="437" y="819.5" width="40" height="40" as="geometry"/>
                </mxCell>
                <mxCell id="G_-Ms--PT5xcRwPfffM3-25" value="&lt;font style=&quot;font-size: 24px;&quot;&gt;3&lt;/font&gt;" style="ellipse;whiteSpace=wrap;html=1;aspect=fixed;fillColor=#CCCCCC;fontColor=#ffffff;strokeColor=#314354;" parent="1" vertex="1">
                    <mxGeometry x="720" y="819.5" width="40" height="40" as="geometry"/>
                </mxCell>
                <mxCell id="G_-Ms--PT5xcRwPfffM3-26" value="&lt;b style=&quot;&quot;&gt;&lt;font style=&quot;font-size: 36px;&quot; color=&quot;#7ea6e0&quot;&gt;SIGN UP&lt;/font&gt;&lt;/b&gt;" style="text;html=1;strokeColor=none;fillColor=none;align=center;verticalAlign=middle;whiteSpace=wrap;rounded=0;fontSize=24;fontColor=#FFFFFF;" parent="1" vertex="1">
                    <mxGeometry x="360.5" y="730" width="242" height="46" as="geometry"/>
                </mxCell>
                <mxCell id="G_-Ms--PT5xcRwPfffM3-29" value="&lt;font color=&quot;#666666&quot; style=&quot;font-size: 14px;&quot;&gt;Update Avatar&lt;/font&gt;" style="text;html=1;strokeColor=none;fillColor=none;align=center;verticalAlign=middle;whiteSpace=wrap;rounded=0;fontSize=24;fontColor=#000000;" parent="1" vertex="1">
                    <mxGeometry x="480" y="819.5" width="94" height="35" as="geometry"/>
                </mxCell>
                <mxCell id="G_-Ms--PT5xcRwPfffM3-30" value="&lt;font color=&quot;#666666&quot; style=&quot;font-size: 14px;&quot;&gt;Information&lt;/font&gt;" style="text;html=1;strokeColor=none;fillColor=none;align=center;verticalAlign=middle;whiteSpace=wrap;rounded=0;fontSize=24;fontColor=#000000;" parent="1" vertex="1">
                    <mxGeometry x="195" y="817" width="94" height="35" as="geometry"/>
                </mxCell>
                <mxCell id="G_-Ms--PT5xcRwPfffM3-31" value="&lt;font color=&quot;#666666&quot; style=&quot;font-size: 14px;&quot;&gt;Review&lt;/font&gt;" style="text;html=1;strokeColor=none;fillColor=none;align=center;verticalAlign=middle;whiteSpace=wrap;rounded=0;fontSize=24;fontColor=#000000;" parent="1" vertex="1">
                    <mxGeometry x="760" y="819.5" width="56" height="35" as="geometry"/>
                </mxCell>
                <mxCell id="G_-Ms--PT5xcRwPfffM3-32" value="" style="endArrow=none;html=1;rounded=0;fontSize=14;fontColor=#666666;" parent="1" edge="1">
                    <mxGeometry width="50" height="50" relative="1" as="geometry">
                        <mxPoint x="310" y="841" as="sourcePoint"/>
                        <mxPoint x="404" y="841" as="targetPoint"/>
                    </mxGeometry>
                </mxCell>
                <mxCell id="G_-Ms--PT5xcRwPfffM3-33" value="" style="endArrow=none;html=1;rounded=0;fontSize=14;fontColor=#666666;" parent="1" edge="1">
                    <mxGeometry width="50" height="50" relative="1" as="geometry">
                        <mxPoint x="600" y="839" as="sourcePoint"/>
                        <mxPoint x="694" y="839" as="targetPoint"/>
                    </mxGeometry>
                </mxCell>
                <mxCell id="G_-Ms--PT5xcRwPfffM3-35" value="" style="rounded=0;whiteSpace=wrap;html=1;fontSize=24;" parent="1" vertex="1">
                    <mxGeometry x="111" y="1670" width="737" height="797" as="geometry"/>
                </mxCell>
                <mxCell id="35" style="edgeStyle=entityRelationEdgeStyle;html=1;dashed=1;fontSize=20;fontColor=#1BA1E2;strokeColor=#FF6666;" edge="1" parent="1" source="G_-Ms--PT5xcRwPfffM3-36" target="13">
                    <mxGeometry relative="1" as="geometry"/>
                </mxCell>
                <mxCell id="G_-Ms--PT5xcRwPfffM3-36" value="&lt;font color=&quot;#ffffff&quot; style=&quot;font-size: 18px;&quot;&gt;SUBMIT&lt;/font&gt;" style="rounded=1;whiteSpace=wrap;html=1;fillColor=#1ba1e2;strokeColor=#006EAF;fontColor=#ffffff;" parent="1" vertex="1">
                    <mxGeometry x="695" y="2373" width="116" height="37" as="geometry"/>
                </mxCell>
                <mxCell id="G_-Ms--PT5xcRwPfffM3-37" value="&lt;span style=&quot;font-size: 24px&quot;&gt;V&lt;/span&gt;" style="ellipse;whiteSpace=wrap;html=1;aspect=fixed;fillColor=#1ba1e2;fontColor=#ffffff;strokeColor=#006EAF;" parent="1" vertex="1">
                    <mxGeometry x="155" y="1798.5" width="40" height="40" as="geometry"/>
                </mxCell>
                <mxCell id="G_-Ms--PT5xcRwPfffM3-38" value="&lt;font style=&quot;font-size: 24px&quot;&gt;V&lt;/font&gt;" style="ellipse;whiteSpace=wrap;html=1;aspect=fixed;fillColor=#1ba1e2;fontColor=#ffffff;strokeColor=#006EAF;" parent="1" vertex="1">
                    <mxGeometry x="435" y="1798.5" width="40" height="40" as="geometry"/>
                </mxCell>
                <mxCell id="G_-Ms--PT5xcRwPfffM3-39" value="&lt;font style=&quot;font-size: 24px;&quot;&gt;3&lt;/font&gt;" style="ellipse;whiteSpace=wrap;html=1;aspect=fixed;fillColor=#1ba1e2;fontColor=#ffffff;strokeColor=#006EAF;" parent="1" vertex="1">
                    <mxGeometry x="718" y="1798.5" width="40" height="40" as="geometry"/>
                </mxCell>
                <mxCell id="G_-Ms--PT5xcRwPfffM3-40" value="&lt;b style=&quot;&quot;&gt;&lt;font style=&quot;font-size: 36px;&quot; color=&quot;#7ea6e0&quot;&gt;SIGN UP&lt;/font&gt;&lt;/b&gt;" style="text;html=1;strokeColor=none;fillColor=none;align=center;verticalAlign=middle;whiteSpace=wrap;rounded=0;fontSize=24;fontColor=#FFFFFF;" parent="1" vertex="1">
                    <mxGeometry x="358.5" y="1709" width="242" height="46" as="geometry"/>
                </mxCell>
                <mxCell id="G_-Ms--PT5xcRwPfffM3-43" value="&lt;font color=&quot;#666666&quot; style=&quot;font-size: 14px;&quot;&gt;Update Avatar&lt;/font&gt;" style="text;html=1;strokeColor=none;fillColor=none;align=center;verticalAlign=middle;whiteSpace=wrap;rounded=0;fontSize=24;fontColor=#000000;" parent="1" vertex="1">
                    <mxGeometry x="478" y="1798.5" width="94" height="35" as="geometry"/>
                </mxCell>
                <mxCell id="G_-Ms--PT5xcRwPfffM3-44" value="&lt;font color=&quot;#666666&quot; style=&quot;font-size: 14px;&quot;&gt;Information&lt;/font&gt;" style="text;html=1;strokeColor=none;fillColor=none;align=center;verticalAlign=middle;whiteSpace=wrap;rounded=0;fontSize=24;fontColor=#000000;" parent="1" vertex="1">
                    <mxGeometry x="193" y="1796" width="94" height="35" as="geometry"/>
                </mxCell>
                <mxCell id="G_-Ms--PT5xcRwPfffM3-45" value="&lt;font color=&quot;#666666&quot; style=&quot;font-size: 14px;&quot;&gt;Review&lt;/font&gt;" style="text;html=1;strokeColor=none;fillColor=none;align=center;verticalAlign=middle;whiteSpace=wrap;rounded=0;fontSize=24;fontColor=#000000;" parent="1" vertex="1">
                    <mxGeometry x="758" y="1798.5" width="56" height="35" as="geometry"/>
                </mxCell>
                <mxCell id="G_-Ms--PT5xcRwPfffM3-46" value="" style="endArrow=none;html=1;rounded=0;fontSize=14;fontColor=#666666;" parent="1" edge="1">
                    <mxGeometry width="50" height="50" relative="1" as="geometry">
                        <mxPoint x="308" y="1820" as="sourcePoint"/>
                        <mxPoint x="402" y="1820" as="targetPoint"/>
                    </mxGeometry>
                </mxCell>
                <mxCell id="G_-Ms--PT5xcRwPfffM3-47" value="" style="endArrow=none;html=1;rounded=0;fontSize=14;fontColor=#666666;" parent="1" edge="1">
                    <mxGeometry width="50" height="50" relative="1" as="geometry">
                        <mxPoint x="598" y="1818" as="sourcePoint"/>
                        <mxPoint x="692" y="1818" as="targetPoint"/>
                    </mxGeometry>
                </mxCell>
                <mxCell id="G_-Ms--PT5xcRwPfffM3-56" value="" style="shape=image;verticalLabelPosition=bottom;labelBackgroundColor=default;verticalAlign=top;aspect=fixed;imageAspect=0;image=data:image/png,iVBORw0KGgoAAAANSUhEUgAAAOEAAADhCAMAAAAJbSJIAAAAb1BMVEX///9VVVVGRkbi4uJSUlLp6elOTk5JSUlra2tdXV1ERERLS0tAQED8/Pz09PTc3NyWlpZ3d3fT09PMzMxhYWFbW1usrKxxcXGSkpLv7++8vLy0tLSmpqZnZ2eHh4d+fn6fn5/Ozs7ExMSLi4s0NDQiO3YpAAAHK0lEQVR4nO2d25aqMAyGpZZWqSCeD6gwut//GTc4OqKCQEnazqx8t7MG+KVp0jQpgwFBEARBEARBEARBEARBEARBEARBEARhgsgfFuxC2w8CTzhN4pknJftGynGanYd/Ruj8sFFMCe6V4FwoxtNkaPvhehOe00A+iyvrVIGXTW0/Yx/8mMs6dXcEO+5/63CdpoFokHd7kzKLbD+sBtMNa3p9pRcp49+mcXcK2uu7alRr28/ciQNrNT6fUOO57cduzXCpOuvL4cHll0w5644D9IHwfoPrCGdMU9/1NSa2n78Rn3e3wDLsZFtBA1OlO0LvqI3TxrgIeurLEWOHXSOEwNwY3ZUIIzCXuHJU4nwCIzCXuHTSFn0JJTC3xY1tNRWEvO8sWkZtbet5Z9bPD74S7G0LeiUDHKPfEn3bkp6ZA02jD/jSho7dfL/O4m2crffzXfkPoQdphN+ozLS6/WnFmFKiQCkmvTT5UZlpLZcaYCYTcdF+E6jXyZKrYJRcffMQfIxerz8yps/fspqAmisZ5zPCBn6MFrCzGX3R9mPKTATxoseK8BPcMyJwL5scncAwwivSwHo46rNi7w9HF/jVmLLGRWJHNmuUObID/IgrMLYtMJ9OUXOosVUT/EZcEAVmDgjMJeKthRP7Q7RAonn9qRsCPY6VP8VYLOjBkBReYFfsPUCaTeEXtNqIA4rCsStjNDdElLTbHjrp0gcUf+HQK8wNESEldXbC19+RC3iFI5deoYdQwuC7M5EWiBhc4cEZX3gFIao5OjVIEVJuO6fmmQJohWeXnGGBgFaYuWWGCLH3zC0z9LwJtELXBIK/w9A1MwS3Q9+5qVT+eYXQdjgkhcYhhV1xL2iDVhg55y3APb5rQRu8QqRNeX3AFcauvURwhWe0bXlNwBU6lqZBUDhYOmaI8ApBl8AA14JXCBl7y0N/98pn6WmbJQuortphcoIbpSwZJP1/L865EEoyPlv37hqax17QuyfkgSqSuTFckMQVk6eF/qscZlyjqe4DYna9Lmx9NJfqovcm57N2Pa0dnuXWUxBCT84i2HTfrenU09oOru59IRHgwL9dmx27bX5HF+2WwXqCx1hCKOzgQbr7oOiFBHp8FgTlQhiofqEyfNJ22w2nwJI9FxisMe4hj622h3EKLNVrPdoWI57nQYuKqQNKnF3Rt7RBWZQFjdunF5SsDF+9e+VwhRLQy/SjvnCDsxZUVfaxw1lZi9GnGGeEc9NJta+agvUnPiE+1BHjmIbH6oqzzzhra1G7DZ7iDFFZb/xIRbmixhYBY/42t7tyMvmj7nF+z4bqeqRipCrD8HHMnovPbdhYlbmT99kbKd3U2FEH2Q9d4r0fM8YxiEnzug2pOFe9mCJSnTprE+0jTQDB8+jBMfi3cLsanEn8uTgMp4D0lpZpJkWJNJ76MVEmtKpwuwaUaY6vHjdIUKYZ1T6rEKH8xKVWPpR1zKRLim+I4Y0fLxHFCjue8oCRuPHY3VdhbPLKrJNAnMQNv011GOUkH8PtajASN7fGBYQybq1CZeDDUApuZf3w7SKc65x6BJ7svy9sEDaxpd4BFrvak1u1CQqPBe8MW4Tb1cBHx6qY0VPoH47pH3wAnrjhRWQMfM1+JzodgOd1PoYvkG0dblcD7TPYbvAFu3Th457lA8AZTTkfrGG3nEWHTbxKQljnlU81sFVrQf8TVXegG8TiADuVttncagTUZ/AtaNjNYNqsIX1GHnwf4a6moBoDIX3GcrACuxZgXyBgsn8F5/D1wu0aAHN/gAr7+okn4NYZcKN0vBnVsaxeawz5uI7lGOqxVoMl1KWKisEaghqFQf2/gD3V0kglfs32jIluHL4ZABaP1mJT4clIl69FhSIbJH9boUoGCwNtTRYVyi8jLaIWFTJ/EP7xmSY00rhlT+E1r2/g5BJ7Cq9J7yn+fewpZNecA35rmj2F34cTbNGHqTWFt+OI5ug3sqaQ3RJjOMW65RtZUvhTGHXAtkRbCtV9ByXCvpMthewnr4I911hSWDr2DPvYBEsKWSlzhPwS7Sh8+loE8skQdhQ+n5G5RpVoReFrITRqR7oNhW8ZeNS72VD4fsopSrvc/W7mFVaVSyCUJP3czrjCyqozpF6yAuMKa77T5qN9u8K0wtomD7TVvmmFqrbqDOtccrMK+adyiTl4E/4Vowq5+lgPMkWxRZMKuWgojPRBv1p4w6BCsWzca4828CGqOYUsbVN0dgA/McKUQt628FPzQ+H1GFIoa+oFDLxGIwpFt8pdP4X0GwYUCrbtWs4zBTyAB1shF8FW55MQw4sCKoTEVSiYd9Atx4r2s8nblyo1wFPIhQwuX5rybiLPp1UgRT+ZKAq5UIyNMpAvB/mLw2mpJNPmX43Cf5rXkzneLNtPYT9IHvn+UJfqQCP0NYkiR7+1ThAEQRAEQRAEQRAEQRAEQRAEQRAEYZf/0XaS3qfrLdcAAAAASUVORK5CYII=;fontSize=14;fontColor=#999999;" parent="1" vertex="1">
                    <mxGeometry x="435" y="1231" width="29.2" height="29.2" as="geometry"/>
                </mxCell>
                <mxCell id="G_-Ms--PT5xcRwPfffM3-58" value="&lt;br&gt;&lt;font color=&quot;#999999&quot;&gt;&lt;br&gt;&lt;/font&gt;" style="rounded=1;whiteSpace=wrap;html=1;fontSize=14;fontColor=#000000;strokeColor=#999999;" parent="1" vertex="1">
                    <mxGeometry x="182" y="1897" width="578" height="421" as="geometry"/>
                </mxCell>
                <mxCell id="42" style="edgeStyle=orthogonalEdgeStyle;html=1;dashed=1;fontSize=22;fontColor=#7EA6E0;strokeColor=#FF6666;" edge="1" parent="1" source="G_-Ms--PT5xcRwPfffM3-60" target="G_-Ms--PT5xcRwPfffM3-5">
                    <mxGeometry relative="1" as="geometry">
                        <Array as="points">
                            <mxPoint x="29" y="1364"/>
                            <mxPoint x="29" y="318"/>
                        </Array>
                    </mxGeometry>
                </mxCell>
                <mxCell id="G_-Ms--PT5xcRwPfffM3-60" value="&lt;font color=&quot;#1ba1e2&quot; style=&quot;font-size: 18px;&quot;&gt;&lt;b&gt;BACK&lt;/b&gt;&lt;/font&gt;" style="rounded=1;whiteSpace=wrap;html=1;strokeColor=none;gradientColor=none;" parent="1" vertex="1">
                    <mxGeometry x="572" y="1346" width="116" height="37" as="geometry"/>
                </mxCell>
                <mxCell id="41" style="edgeStyle=orthogonalEdgeStyle;html=1;dashed=1;fontSize=22;fontColor=#7EA6E0;strokeColor=#FF6666;" edge="1" parent="1" source="G_-Ms--PT5xcRwPfffM3-62">
                    <mxGeometry relative="1" as="geometry">
                        <mxPoint x="113" y="1412" as="targetPoint"/>
                        <Array as="points">
                            <mxPoint x="30" y="2392"/>
                            <mxPoint x="30" y="1412"/>
                            <mxPoint x="113" y="1412"/>
                        </Array>
                    </mxGeometry>
                </mxCell>
                <mxCell id="G_-Ms--PT5xcRwPfffM3-62" value="&lt;font color=&quot;#1ba1e2&quot; style=&quot;font-size: 18px;&quot;&gt;&lt;b&gt;BACK&lt;/b&gt;&lt;/font&gt;" style="rounded=1;whiteSpace=wrap;html=1;strokeColor=none;gradientColor=none;" parent="1" vertex="1">
                    <mxGeometry x="572" y="2373" width="116" height="37" as="geometry"/>
                </mxCell>
                <mxCell id="8" value="" style="shape=image;verticalLabelPosition=bottom;labelBackgroundColor=#ffffff;verticalAlign=top;aspect=fixed;imageAspect=0;image=data:image/png,iVBORw0KGgoAAAANSUhEUgAAAUIAAAE9CAYAAAB+2WuIAAAABHNCSVQICAgIfAhkiAAAABl0RVh0U29mdHdhcmUAZ25vbWUtc2NyZWVuc2hvdO8Dvz4AAAA+aVRYdENyZWF0aW9uIFRpbWUAAAAAAFRo4bupIGJhLCAyMSBUaMOhbmcgNiBOxINtIDIwMjIgMTE6NTg6MDggKzA3BfaeBwAAHwFJREFUeJzt3dtTItfCBfAFSEMDgqCggHjBu06SqUly/v+385LkS1WiccaRIAgoKC3ITRT4HjxyTiZOROnu3bt7/aooqlIVeg3ictPde2/XaDQagYjIwdyiAxARicYiJCLHYxESkeOxCInI8ViEROR4M6IDkHzu7u7Q7/fHz/1+Hw8PD+Pnp8dgMMBwOBw/P92g8PTscrnGz263Gx6PZ/w8MzMzfiiKMn5WFAU+n2/8TKQHF2+foed0Op3xo9vtotvtotfrodfrYTgcio4HAHC73fD7/fD7/VBVFaqqIhAIjB9Ek2IROtz9/T1ub2/RarXGj3a7Ddk/Fi6XC8FgEKFQaPyYnZ2F1+sVHY0siEXoMI1GA81mc/zodruiI5lKVVWEw+HxIxKJiI5EFsAitDlN09BoNKBpGprNJgaDgehIluLxeBAOhxGNRhGJRBCNRkVHIgFYhDbTbrehaRrq9Trq9bplzufJwu12IxaLIRaLIRqNIhgMio5EJmAR2oCmabi6ukK9Xke73RYdx1aCwSBisRgWFhY4WrQxFqGkrq+vUavVUKvVcH9/LzqOI3i9XsTjccTjcczPz4uOQzpiEUpE0zRUq1XUajX0+33RcRxNURTE43EkEgmOFG2ARWhx7XYbl5eXuLy8dNwVXlmoqorFxUUsLi7ynKKkWIQWdXFxgUqlAk3TREehV4hGo0gmk1haWhIdhV6BRWghnU4HlUoFlUqFX30lpygKkskkkskkZ7lIgEVoAfV6HaVSCbVaTXQUMkA8Hkc6nUYsFhMdhb6CRShQpVJBqVRCs9kUHYVMEA6HkU6nkUwmRUehL7AIBTg/P0exWOTFD4dSVRWZTAbLy8uio9B/sAhNMhqNUCwWUSwWcXd3JzoOWYDP50Mmk0EmkxkvSUZisAhNUCgUUCgUeAGEnqUoClZWVrCysiI6imOxCA1UKpVwdnaGXq8nOgpJwO/3Y3V1Fel0WnQUx2ERGqBarSKfz6PVaomOQhIKhUJYW1tDIpEQHcUxWIQ6ajQa+PPPP1Gv10VHIRuIxWJYX1/nmokmYBHqoN/vI5fLoVwui45CNpRKpZDNZqEoiugotsUinFKxWEQul+OCp2Qoj8eDbDaLTCYjOootsQjfSNM05HI5NBoN0VHIQSKRCLLZLFe80RmL8JVGoxFOT09RKBRERyEHW1lZwcbGBu8/1AmL8BVqtRo+f/7MGSFkCaqqYnNzE/F4XHQU6bEIJzAcDnFycoJSqSQ6CtHfpNNpbG1twe12i44iLRbhC66urnBycsJRIFmaqqrY2trCwsKC6ChSYhH+g9PTU5ydnYmOQTSx1dVVbGxsiI4hHRbhM1qtFj5+/MgrwiSlSCSCnZ0dhEIh0VGkwSL8QqlUwqdPn8C3hWTmcrmwvb3NecsTYhH+j+PjY84OIVtJpVLY3d0VHcPyWIR43Cnu+PiYX4XJliKRCHZ3d7nD3j9wfBFWq1UcHR1hOByKjkJkGLfbjf39fa5o8xWOLsJ8Po9cLic6BpFpstks1tbWRMewHMcW4dHRES4uLkTHIDLd0tIS9vf3RcewFMcVYa/Xw+HhIc8HkqNFIhEcHBzA7/eLjmIJjirCRqOBw8NDLp1PhMetAQ4ODrjwKxxUhLVaDYeHh7woQvQ/3G43Dg4OHL9wgyOKsFwu4/j4WHQMIsva3d1FKpUSHUMY2xdhoVDA58+fRccgsrzNzU3Hbilq6yLM5XLI5/OiYxBJY21tDdlsVnQM09m2CE9OTlAsFkXHIJJOJpPB1taW6BimsmURfvz4kYuoEk0hnU5jZ2dHdAzT2G5JW5Yg0fRKpRI+fvwoOoZpbFWELEEi/TipDG1ThCxBIv05pQxtUYTcWInIOKVSCScnJ6JjGEr6Iszlcrw6TGSwYrFo65WapC7CQqHA+wSJTJLP51EoFETHMIS0RVgulzljhMhknz9/tuV2FlIWYa1W49xhIkGOj49Rq9VEx9CVdEX4tJQWEYljtzU9pSrCp0VVuZQWkVjD4dBWa3tKVYR2euOJZPc0MLEDaYrw6OjIVkNxIjtoNBo4OjoSHWNqUhRhPp/nRktEFnVxcSH9bWyWL8JqtWrrGzmJ7CCXy6FarYqO8WaWLsJ2u22LYTeRExwdHaHdbouO8SaWLsLj42NeISaSxHA4lPb+XssW4fHxMS+OEEmm0WhIWYaWLMJSqWTLaTxETlAul6VbDcpyRdhqtfDp0yfRMYhoCp8+fUKr1RIdY2KWK8KPHz/ChtuoEDnKaDSSakFXSxXh6ekpzwsS2USj0cDp6anoGBOxTBFeXV3h7OxMdAwi0tHZ2Rmurq5Ex3iRJYpwOBzafilwIqc6OTmx/G1wlijCk5MTdLtd0TGIyADdbtfyAx3hRVir1aS71E5Er1MqlSy9mKvQIhyNRlxun8ghPn/+bNk7QoQW4enpKb8SEzlEt9u17FVkYUWoaZptd8QioucVCgVomiY6xt8IK0IurUXkTFb83RdShMVikTdOEzlUo9FAsVgUHeMvTC/Cfr9vyb8IRGSeXC6Hfr8vOsbYjNkHzOVyGAwGZh+WBFIUBaqqwuv1wuv1YmZmBh6PB4PBAA8PD7i/v8f9/T263a6lfjnIOIPBALlcDru7u6KjADC5CBuNBpfXsjmv14v5+XnEYjHMzs5CVVW43ZN/8RgMBuj1emg2m6jX67i+vsbDw4OBiUmUcrmMZDKJSCQiOgpcIxNv7Pn1119Rr9fNOhyZRFEUJJNJJBIJzM7O6v76zWYT1WoVlUoF9/f3ur8+iROLxfD+/XvRMcwrwmq1it9//92MQ5FJFhcXkUqlEI1GTTvm9fU1yuWypWcp0Ou8e/cOiURCaAbTvhrLvt0fPXK73UilUshkMlBV1fTjz8/PY35+Hp1OB2dnZ7i4uLDsbAWaTD6fF16EpowIS6WSVIs00vPm5+ext7cHRVFERxnrdrv4448/cHNzIzoKTWFnZwfpdFrY8U25fYbrDMrN6/Xi4OAA3333naVKEABUVcWHDx+ws7MDj8cjOg69keiOMHxEWCgUuLCCxBYWFrC3twev1ys6yovu7u5weHjI0aGkNjc3sbKyIuTYho4IR6MR5xNLamZmBvv7+/j222+lKEEA8Pl8+PDhAzY3N191yw5ZQ6FQEHa+19BPS7FY5A2yElIUBT/++COWlpZER3mTlZUVfPjwATMzps8XoCn0+31hU+8ML0KSi9/vxw8//CDkirCewuEwPnz4IM1olh7ZrgjPz89xd3dn1MuTAQKBAH788Uf4/X7RUXQRCoXw/fffswwlcnd3h/Pzc9OPa1gRcjQoF6/Xi/fv39uuNAKBAN6/f89zhhIR0R2GfDoqlQpXnpaI2+3G+/fvbTMS/NLs7Cy++eYbuFwu0VFoAt1uF5VKxdRjGlKE3IxJLu/evTNkjrCVzM/PY2NjQ3QMmpDZHaJ7EdbrdTSbTb1flgyytraGhYUF0TFMsbKygng8LjoGTeBp9SGz6F6EHA3KIxaLIZvNio5hqv39fQQCAdExaAJmdomuRdjpdLgqiCRmZmZwcHAgOobpPB4PzxdKolarodPpmHIsXYvQ7BOc9HZbW1u2u0I8qWAwiEwmIzoGTcCsTmEROlA4HEYymRQdQ6hsNgufzyc6Br1AuiK8uLjgdDpJ7OzsiI4gnNvtdtz5URn1+31cXFwYfhzdipCjQTnMzc3Z/laZSS0uLlpuWTH6OzO6RZcibLfblty9nv5O1DJHVuR2u7G8vCw6Br1A0zS0221Dj6FLEV5eXurxMmQwVVUdc8/gpNLpNKffScDojmEROojIpdCtyuv18iZrCVi+CDVN47xiCbhcLsdfKf6aVColOgK9oNvtGnr6beoirFareuQggy0sLDj2vsGXRKNR2y44YSdGds3URciZJHKYn58XHcHS+P5Yn5FdM1URXl9f895BSZi5CbuM5ubmREegF/T7fVxfXxvy2lMVIUeDclAURfql943GIpSDUZ3DInQAjgZf5vP5eJ5QApYrQk3TcH9/r2cWMkgwGBQdQQp8n6zv/v7ekKvHby7Cq6srPXOQgbj+3mT4PsnBiO55cxGauXosTYe/4JPh+yQHI7rnTUXYbrcNn/tH+uG5r8nwfZKDEf3zpiLkAgty4VzayXAlGnno3UFv+g3h12K5cFn6yXDmjTz07iAWoQOwCCfDIpSH8CLUNA3D4VDXEGQs/rwmwz8Y8hgOh7p+PX51ETYaDd0OTuYYDAaiI0iB75Nc9OyiN40ISS78BZ/Mw8OD6Aj0CkJHhM1mU7eDkzn4Cz4Zvk9y0bOLXlWEjUaDowsJ9Xo90RGkwPdJLoPBQLevx68qQo4G5dTpdERHkALfJ/no1UksQgfgL/hk+D7Jh0VIE+Mv+GRarZboCPRKphfh/f09N2mSVLPZxGg0Eh3D0obDIYtQQt1uV5flACcuwtvb26kPRmIMh0Pe//mCm5sb/rGQlB7dNHER8q+l3G5ubkRHsDTeHysvPbqJRegQXEj3n/H9kReLkCbWbDZ50eQrbm9vub6mxEwtQn5Q5FepVERHsKRyuSw6Ak1Bj26aqAg7nQ5PJNsAi/DvhsMhLi8vRcegKYxGo6m/7UxchCS/fr/PMvxCqVTiHGMbYBHSqxQKBdERLGM0GvH9sAlTipA3UttHu93mCuP/Ua1WcXd3JzoG6WDajmIROtDp6anoCMINh0O+DzZiShFyeSJ7ub29RbFYFB1DqHw+z8+1jUz7s2QROlQul0O/3xcdQ4hOp4OzszPRMUhHhhfh3d0dN/+xocFggN9//91xt0U59d9td8PhcKrzvS8WoVNHDU5wc3PjuPNkR0dHnCVlU9N01UQjQrKvQqGAarUqOoYpCoUCarWa6BhkEI4IaSpHR0e2X2bt+vracaNfpzF0RMgitL/hcIhff/3VthfFbm9v8dtvv/G8oM0ZWoScfuQM9/f3+L//+z9dVvu1kna7jV9//ZUX/Bxgmq7iiJDGut0ufvrpJ9uMDG9vb/Hzzz/brtzpeRwRkm663S5+/vln6eeXNxoN/PLLL/z8OoihI0J+kJzn7u4OP/30Ey4uLkRHebXRaISzszP88ssvGAwGouOQiabpqhkjX5zk9fDwgKOjI9RqNezt7WFm5sWPinC9Xg+Hh4fcqMqhDC1C/lV1tlqthkajge3tbSQSCdFxnjUajXB+fo5cLsfPq4NN87N/sQh5tY36/T5+//13zM/PY29vD4qiiI401ul0cHh4aPv7IOll03QVR4Q0sevra/z73/9GKpVCJpOB3+8XlqXVaqFQKODy8pL3BxIAjgjJRIPBAMViEcViEclkEslkEnNzc6Ydv1aroVKpcPtN+htDR4T8a0tfU6lUUKlU4Pf7sbS0hEQigVAopPtxbm5ucHFxgWq1yot39FXTdJX1LwWS5fV6PeTzeeTzeSiKglgshoWFBYRCIQQCgVe91mAwQKfTwe3tLa6urqBpGk/PkOE4IiRd9ft9XFxc/OUeRJ/PB1VV4fV6MTMzg5mZGXg8HgwGA9zf3+Ph4QH9fh/dbpezQOjNOCIkS7u7u+NybmRpL84scblcZuQgIprKNF010Z4lRER2xhEhEdmCoSNCt5uDRiKyvmm66sX/0+PxvPnFiYjMMk1XcURIRLbAESEROZ6hI0IZ1qEjIpqmq1iERGQLLEIicjxDi9BKi3ASEX3NNF3FESER2QJHhETkeIaOCFmERCQDQ4vQ5/O9+cWJiMwyTVdxREhEtmD4iJDT7IjIytxu91Qjwokus/j9fnQ6nTcfhJwhEAjA7/fD5/NBUZS//AF9+m/PXdl7Wqq/3++Pl1sfDofo9/u4u7tDr9fj54/+0bRby7IIaWIejwfBYBDBYBCqqkJRFCiKAp/Ph9nZWcOPf3t7i7u7u3FpdjodtNtttNttbjvrcKYUoaqqUx2E5OP1ehGLxTA7OzvejU7khu4AMDs7+9XC7fV6aLfbaLVaaDab0DSNW386yLQdxSIkAI8/47m5OUQiEUQiEQSDQdGRXsXv98Pv92N+fn7831qtFm5ubtBoNKBpGvr9vsCEZCRTivC1e9OS9YVCIUQiEczNzSEajdry7oBQKIRQKITl5WUAQKfTQaPRGJcjT/fYx7QdxSJ0CJ/Ph0QigWg0irm5OUdOnQwEAggEAkgmkwAe92DWNA2apqFWq3FPZYmZVoQul4ubvUtGVVUsLi4iHo+bcjFDNoqiYHFxEYuLi9jd3R0XYrVa5ddoibhcLnOKEACCwSBardZUByPjBYNBJBIJJBIJ6c7ziRaNRhGNRrG9vY1Go4FqtYrLy0uWosXp8TmfuAhDoRCL0KIURUE6ncbS0hIvbOnk6aLR1tYWGo0GLi8vUalUMBgMREejL4RCoalf41VFSNYSjUaxvLyMeDwuOoqtPZXixsYGLi4ucH5+jna7LToW/QeL0IFCoRCSySQSiQQXxDCZx+NBOp1GOp1Gq9VCtVpFuVzmV2fBTC1CnmwXS1VVZLNZLC4uio5C+O+tOaurqzg/P8fZ2Rlv4BZEj26auAi9Xi9UVUW32536oDQ5VVWxurqKVColOgo9w+PxjH8+5+fnKBaLLEQTqaoKr9c79eu86maycDjMIjRJIBBANptFIpEQHYUm4PV6sb6+Ph4h5vN5FqIJwuGwLq/z6iK8vLzU5cD0vJmZGWSzWaTTabhcLtFx6JXcbjdWVlaQTCaRy+VQLpd5/62BhBUhGSeVSmFjY0OXoT6J5fV6sbOzg3Q6jePjYzSbTdGRbElIEUYiEXg8Ht5LpbNgMIjd3V1EIhHRUUhnoVAIP/zwA8rlMk5OTvi7oyOPx6Pb78yrJ5yGw2FomqbLwZ3O7XZjbW0Nq6ur/Bpsc6lUCgsLC/jjjz9wfX0tOo4t6PkN9dVr8EejUd0O7mSKouCHH37A2toaS9AhFEXBd999h+3tbf7MdaBnF716RMivb9OLRCL45ptvbLn0Fb1seXkZoVAIv/32G1e8mYKeXfSmESE3c3q71dVVfPjwgSXocHNzc/jXv/7FgcUbud1uXUeEb2q0WCymWwAneffuHTY2Nvi1iAA8rhH5/fff817RN9C7g1iEJtnd3eUHnp51cHDAc++vZIki5A/tddbX1zlFjr7K5XLh22+/5Xz+V9C7g95UhE9bOtLL0uk01tfXRccgi/N4PHj//j3Xk5yAEf3z5qse/Hr8srm5Oezs7IiOQZLwer347rvveDHyBUZ0z5vf8YWFBT1z2M7MzAzevXsnOgZJJhAIYGNjQ3QMSzOie95chNFolHNi/8Hm5iZvkaE3yWQyXAj5K7xeryHXKKYag3OJ+OeFQiFeHKGp7O7uio5gSUZ1DovQAJubm6IjkOTC4TB/v55hySKcn5/n178vzM7O8kIS6WJtbU10BEtRFAXz8/OGvPbUl6f4V+uv0um06AhkE7OzszxX+D+M7Jqpi5CzJf6KfxhIT7w747+M7JqpizAajfIm0P+YnZ3llXTSFWdxPVJV1dD3Qpc7N7nF5CNOkSK9cXuMR0Z3DItQR4FAQHQEshmPxwO/3y86hnBSFGEwGOQQnsggTp/XH41GDX8PdJvUmEwm9XopaQ2HQ9ERyIacXoRmdItuRbi0tOT4ewq5fy0ZwePxiI4gjKIoWFpaMvw4ui5zwVEhEenJrE5hERKRZUlZhIFAgDcUE5Eu4vG4aXdi6L4CJKeYEZEezOwS3YswFovxJlAimko4HDZ18RJD1gTnqJCIpmF2hxhShMlkkvOPiehNVFU1/cKrYbvEZDIZo16aiGxMRHcYVoTLy8vw+XxGvTwR2ZDP58Py8rLpxzV030COConoNUR1huFF6PRpd0Q0GUVR7FmELpcLKysrRh6CiGxiZWUFLpdLyLENLULg8R/H9dSI6J/4/X6hgybDixAAVldXzTgMEUlKdEeYUoTpdJq7cRHRs0KhkPBJGKYUIcA9WonoeVboBtOKMJFIcONzIvqLWCxmiS2BZ8w82Pr6Our1upmHNNXNzQ3+/PNP0THIZm5ubkRHMMz6+rroCAAA18jk9eWPj49RLpfNPCQRWVAqlcLu7q7oGABM/Gr8ZH193dF7MBDR4z4s2WxWdIwx04vQ5/NZ6g0gIvNls1lLzTozvQiBx6l3kUhExKGJSLBIJGK5dQiEFCEAjgqJHMqKv/vCijAajXIeMpHDrKysIBqNio7xN8KKEAA2Nja4kjWRQ6iqio2NDdExniW0CF0uFzY3N0VGICKTbG5uCltd5iVCixB43LtU9DxDIjJWOp229J7nwosQALa2tvgVmcimVFXF1taW6Bj/yBJF6Ha7Lf9GEdHbbG1twe22RNV8lWXSLSwsCF+TjIj0tbq6ioWFBdExXmSZIgQeryLzRmsie4hEIpa9SvwlSxUhAOzs7Fj2yhIRTcblcmFnZ0d0jIlZrghDoRC2t7dFxyCiKWxvb0u1Kr3lihB4vNSeSqVExyCiN0ilUtLdEmfJIgSA3d1dhMNh0TGI6BXC4bBl1hh8DcsWIQDs7e1Z/rI7ET1yu93Y29sTHeNNLN0ywWAQ+/v7omMQ0QT29/cRDAZFx3gTSxch8LjpkxWX7SGi/8pms5bYhOmtLF+EwON2f0tLS6JjENEzlpaWLLEl5zSkKELgcdjNm62JrCUSidji9JU0RQgABwcH8Pv9omMQEQC/34+DgwPRMXQhVRE+vfG8kkwkltvtttXARLpGiUQitvkrRCSrg4MDW52qkq4IgcfFXGW8aZPIDnZ3dy29yOpbSFmEwOM0Hi7zT2Suzc1NW05/lbYIgccdsWS/bE8ki7W1NdvuPCl1EQKPN3JabbNoIrvJZDK2ntggfRECj0uBy7baBZEs0um07bfSsEURAo8LurIMifSVTqelWmD1rWxThADLkEhPTilBwGZFCLAMifTgpBIEANdoNBqJDmGEk5MTFItF0TGIpJPJZGx/TvBLti1CAMjlcsjn86JjEEljbW3N1leHv8bWRQgAhUIBnz9/Fh2DyPI2Nzdte5/gS2xfhABQLpdxfHwsOgaRZe3u7tpyxsikHFGEAFCr1XB4eIjhcCg6CpFlPK0iY7e5w6/lmCIEgEajgcPDQ/R6PdFRiIR7WtbOTqvIvJWjihAAer0eDg8P0Wg0REchEuZpOTu7rCc4LccV4ZOjoyNcXFyIjkFkuqWlJVssr68nxxYhAOTzeeRyOdExiEyTzWa5YtMzHF2EAFCtVnF0dMSLKGRrbrcb+/v7Um+5aSTHFyEAtNtt/PHHH2g2m6KjEOkuHA5jb29P2s3XzcAi/B/Hx8col8uiYxDpJpVKcVuLCbAIv1AqlfDp0yfwbSGZuVwubG9vcwGSCbEIn9FqtfDx40feYkNSikQi2NnZQSgUEh1FGizCf3B6eoqzszPRMYgmtrq6io2NDdExpMMifMHV1RVOTk7Q7XZFRyH6KlVVsbW1hYWFBdFRpMQinMBwOMTJyQlKpZLoKER/87SniNttu3WWTcMifIVarYbPnz9zdEiWoKoqNjc3Hb9ggh5YhK80Go1wenqKQqEgOgo52MrKCjY2NuByuURHsQUW4RtpmoZcLscry2SqSCSCbDaLaDQqOoqtsAinVCwWkcvlMBgMREchG/N4PMhms8hkMqKj2BKLUAf9fh+5XI6zUsgQqVQK6+vr8Pl8oqPYFotQR41GA3/++Sfq9broKGQDsVgM6+vrXDjVBCxCA1SrVeTzebRaLdFRSEKhUAhra2tcKcZELEIDlUolnJ2dcWsAmojf78fq6irnBwvAIjRBoVBAoVBAv98XHYUsSFEUrKysOHYrTStgEZpkNBqhWCyiWCzi7u5OdByyAJ/Ph0wmg0wmw/sBBWMRCnB+fo5iscgZKg6lqioymQyWl5dFR6H/YBEKVKlUUCqVuDK2Q4TDYaTTaSSTSdFR6AssQguo1+solUqo1Wqio5AB4vE40uk0YrGY6Cj0FSxCC+l0OqhUKqhUKrywIjlFUZBMJpFMJhEIBETHoRewCC3q4uIClUoFmqaJjkKvEI1GkUwmsbS0JDoKvQKL0OLa7TYuLy9xeXnJiysWpaoqFhcXsbi4yJ3iJMUilIimaahWq6jVavzqLJiiKIjH40gkElwJxgZYhJK6vr5GrVZDrVbD/f296DiO4PV6EY/HEY/HMT8/LzoO6YhFaAOapuHq6gr1eh3tdlt0HFsJBoOIxWJYWFjgyM/GWIQ20263oWka6vU66vU6hsOh6EhScbvdiMViiMViiEajPOfnECxCm9M0DY1GA5qmodlscgHZL3g8HoTDYUSjUUQiEY76HIpF6DCNRgPNZnP8cNqVaFVVEQ6Hxw+u9UcAi9Dx7u/vcXt7i1arNX60223I/rFwuVwIBoMIhULjx+zsLLxer+hoZEEsQnpWp9MZP7rdLrrdLnq9Hnq9nmXOO7rdbvj9fvj9fqiqClVVEQgExg+iSbEI6dXu7u7Q7/fHz/1+Hw8PD+Pnp8dgMMBwOBw/P33Unp6flp5yuVxwu93weDzj55mZmfFDUZTxs6Io8Pl842ciPbAIicjx3KIDEBGJxiIkIsdjERKR47EIicjxWIRE5HgsQiJyPBYhETkei5CIHI9FSESOxyIkIsf7f8dwJNmTi+QnAAAAAElFTkSuQmCC;" vertex="1" parent="1">
                    <mxGeometry x="318.4994736842109" y="901.9957894736845" width="322" height="317" as="geometry"/>
                </mxCell>
                <mxCell id="36" value="" style="edgeStyle=entityRelationEdgeStyle;html=1;dashed=1;fontSize=20;fontColor=#1BA1E2;strokeColor=#FF6666;" edge="1" parent="1" source="9" target="8">
                    <mxGeometry relative="1" as="geometry"/>
                </mxCell>
                <mxCell id="9" value="UPLOAD" style="text;html=1;strokeColor=none;fillColor=none;align=center;verticalAlign=middle;whiteSpace=wrap;rounded=0;" vertex="1" parent="1">
                    <mxGeometry x="467" y="1236" width="78" height="28.6" as="geometry"/>
                </mxCell>
                <mxCell id="10" value="" style="shape=image;verticalLabelPosition=bottom;labelBackgroundColor=#ffffff;verticalAlign=top;aspect=fixed;imageAspect=0;image=data:image/png,iVBORw0KGgoAAAANSUhEUgAAAUIAAAE9CAYAAAB+2WuIAAAABHNCSVQICAgIfAhkiAAAABl0RVh0U29mdHdhcmUAZ25vbWUtc2NyZWVuc2hvdO8Dvz4AAAA+aVRYdENyZWF0aW9uIFRpbWUAAAAAAFRo4bupIGJhLCAyMSBUaMOhbmcgNiBOxINtIDIwMjIgMTE6NTg6MDggKzA3BfaeBwAAHwFJREFUeJzt3dtTItfCBfAFSEMDgqCggHjBu06SqUly/v+385LkS1WiccaRIAgoKC3ITRT4HjxyTiZOROnu3bt7/aooqlIVeg3ictPde2/XaDQagYjIwdyiAxARicYiJCLHYxESkeOxCInI8ViEROR4M6IDkHzu7u7Q7/fHz/1+Hw8PD+Pnp8dgMMBwOBw/P92g8PTscrnGz263Gx6PZ/w8MzMzfiiKMn5WFAU+n2/8TKQHF2+foed0Op3xo9vtotvtotfrodfrYTgcio4HAHC73fD7/fD7/VBVFaqqIhAIjB9Ek2IROtz9/T1ub2/RarXGj3a7Ddk/Fi6XC8FgEKFQaPyYnZ2F1+sVHY0siEXoMI1GA81mc/zodruiI5lKVVWEw+HxIxKJiI5EFsAitDlN09BoNKBpGprNJgaDgehIluLxeBAOhxGNRhGJRBCNRkVHIgFYhDbTbrehaRrq9Trq9bplzufJwu12IxaLIRaLIRqNIhgMio5EJmAR2oCmabi6ukK9Xke73RYdx1aCwSBisRgWFhY4WrQxFqGkrq+vUavVUKvVcH9/LzqOI3i9XsTjccTjcczPz4uOQzpiEUpE0zRUq1XUajX0+33RcRxNURTE43EkEgmOFG2ARWhx7XYbl5eXuLy8dNwVXlmoqorFxUUsLi7ynKKkWIQWdXFxgUqlAk3TREehV4hGo0gmk1haWhIdhV6BRWghnU4HlUoFlUqFX30lpygKkskkkskkZ7lIgEVoAfV6HaVSCbVaTXQUMkA8Hkc6nUYsFhMdhb6CRShQpVJBqVRCs9kUHYVMEA6HkU6nkUwmRUehL7AIBTg/P0exWOTFD4dSVRWZTAbLy8uio9B/sAhNMhqNUCwWUSwWcXd3JzoOWYDP50Mmk0EmkxkvSUZisAhNUCgUUCgUeAGEnqUoClZWVrCysiI6imOxCA1UKpVwdnaGXq8nOgpJwO/3Y3V1Fel0WnQUx2ERGqBarSKfz6PVaomOQhIKhUJYW1tDIpEQHcUxWIQ6ajQa+PPPP1Gv10VHIRuIxWJYX1/nmokmYBHqoN/vI5fLoVwui45CNpRKpZDNZqEoiugotsUinFKxWEQul+OCp2Qoj8eDbDaLTCYjOootsQjfSNM05HI5NBoN0VHIQSKRCLLZLFe80RmL8JVGoxFOT09RKBRERyEHW1lZwcbGBu8/1AmL8BVqtRo+f/7MGSFkCaqqYnNzE/F4XHQU6bEIJzAcDnFycoJSqSQ6CtHfpNNpbG1twe12i44iLRbhC66urnBycsJRIFmaqqrY2trCwsKC6ChSYhH+g9PTU5ydnYmOQTSx1dVVbGxsiI4hHRbhM1qtFj5+/MgrwiSlSCSCnZ0dhEIh0VGkwSL8QqlUwqdPn8C3hWTmcrmwvb3NecsTYhH+j+PjY84OIVtJpVLY3d0VHcPyWIR43Cnu+PiYX4XJliKRCHZ3d7nD3j9wfBFWq1UcHR1hOByKjkJkGLfbjf39fa5o8xWOLsJ8Po9cLic6BpFpstks1tbWRMewHMcW4dHRES4uLkTHIDLd0tIS9vf3RcewFMcVYa/Xw+HhIc8HkqNFIhEcHBzA7/eLjmIJjirCRqOBw8NDLp1PhMetAQ4ODrjwKxxUhLVaDYeHh7woQvQ/3G43Dg4OHL9wgyOKsFwu4/j4WHQMIsva3d1FKpUSHUMY2xdhoVDA58+fRccgsrzNzU3Hbilq6yLM5XLI5/OiYxBJY21tDdlsVnQM09m2CE9OTlAsFkXHIJJOJpPB1taW6BimsmURfvz4kYuoEk0hnU5jZ2dHdAzT2G5JW5Yg0fRKpRI+fvwoOoZpbFWELEEi/TipDG1ThCxBIv05pQxtUYTcWInIOKVSCScnJ6JjGEr6Iszlcrw6TGSwYrFo65WapC7CQqHA+wSJTJLP51EoFETHMIS0RVgulzljhMhknz9/tuV2FlIWYa1W49xhIkGOj49Rq9VEx9CVdEX4tJQWEYljtzU9pSrCp0VVuZQWkVjD4dBWa3tKVYR2euOJZPc0MLEDaYrw6OjIVkNxIjtoNBo4OjoSHWNqUhRhPp/nRktEFnVxcSH9bWyWL8JqtWrrGzmJ7CCXy6FarYqO8WaWLsJ2u22LYTeRExwdHaHdbouO8SaWLsLj42NeISaSxHA4lPb+XssW4fHxMS+OEEmm0WhIWYaWLMJSqWTLaTxETlAul6VbDcpyRdhqtfDp0yfRMYhoCp8+fUKr1RIdY2KWK8KPHz/ChtuoEDnKaDSSakFXSxXh6ekpzwsS2USj0cDp6anoGBOxTBFeXV3h7OxMdAwi0tHZ2Rmurq5Ex3iRJYpwOBzafilwIqc6OTmx/G1wlijCk5MTdLtd0TGIyADdbtfyAx3hRVir1aS71E5Er1MqlSy9mKvQIhyNRlxun8ghPn/+bNk7QoQW4enpKb8SEzlEt9u17FVkYUWoaZptd8QioucVCgVomiY6xt8IK0IurUXkTFb83RdShMVikTdOEzlUo9FAsVgUHeMvTC/Cfr9vyb8IRGSeXC6Hfr8vOsbYjNkHzOVyGAwGZh+WBFIUBaqqwuv1wuv1YmZmBh6PB4PBAA8PD7i/v8f9/T263a6lfjnIOIPBALlcDru7u6KjADC5CBuNBpfXsjmv14v5+XnEYjHMzs5CVVW43ZN/8RgMBuj1emg2m6jX67i+vsbDw4OBiUmUcrmMZDKJSCQiOgpcIxNv7Pn1119Rr9fNOhyZRFEUJJNJJBIJzM7O6v76zWYT1WoVlUoF9/f3ur8+iROLxfD+/XvRMcwrwmq1it9//92MQ5FJFhcXkUqlEI1GTTvm9fU1yuWypWcp0Ou8e/cOiURCaAbTvhrLvt0fPXK73UilUshkMlBV1fTjz8/PY35+Hp1OB2dnZ7i4uLDsbAWaTD6fF16EpowIS6WSVIs00vPm5+ext7cHRVFERxnrdrv4448/cHNzIzoKTWFnZwfpdFrY8U25fYbrDMrN6/Xi4OAA3333naVKEABUVcWHDx+ws7MDj8cjOg69keiOMHxEWCgUuLCCxBYWFrC3twev1ys6yovu7u5weHjI0aGkNjc3sbKyIuTYho4IR6MR5xNLamZmBvv7+/j222+lKEEA8Pl8+PDhAzY3N191yw5ZQ6FQEHa+19BPS7FY5A2yElIUBT/++COWlpZER3mTlZUVfPjwATMzps8XoCn0+31hU+8ML0KSi9/vxw8//CDkirCewuEwPnz4IM1olh7ZrgjPz89xd3dn1MuTAQKBAH788Uf4/X7RUXQRCoXw/fffswwlcnd3h/Pzc9OPa1gRcjQoF6/Xi/fv39uuNAKBAN6/f89zhhIR0R2GfDoqlQpXnpaI2+3G+/fvbTMS/NLs7Cy++eYbuFwu0VFoAt1uF5VKxdRjGlKE3IxJLu/evTNkjrCVzM/PY2NjQ3QMmpDZHaJ7EdbrdTSbTb1flgyytraGhYUF0TFMsbKygng8LjoGTeBp9SGz6F6EHA3KIxaLIZvNio5hqv39fQQCAdExaAJmdomuRdjpdLgqiCRmZmZwcHAgOobpPB4PzxdKolarodPpmHIsXYvQ7BOc9HZbW1u2u0I8qWAwiEwmIzoGTcCsTmEROlA4HEYymRQdQ6hsNgufzyc6Br1AuiK8uLjgdDpJ7OzsiI4gnNvtdtz5URn1+31cXFwYfhzdipCjQTnMzc3Z/laZSS0uLlpuWTH6OzO6RZcibLfblty9nv5O1DJHVuR2u7G8vCw6Br1A0zS0221Dj6FLEV5eXurxMmQwVVUdc8/gpNLpNKffScDojmEROojIpdCtyuv18iZrCVi+CDVN47xiCbhcLsdfKf6aVColOgK9oNvtGnr6beoirFareuQggy0sLDj2vsGXRKNR2y44YSdGds3URciZJHKYn58XHcHS+P5Yn5FdM1URXl9f895BSZi5CbuM5ubmREegF/T7fVxfXxvy2lMVIUeDclAURfql943GIpSDUZ3DInQAjgZf5vP5eJ5QApYrQk3TcH9/r2cWMkgwGBQdQQp8n6zv/v7ekKvHby7Cq6srPXOQgbj+3mT4PsnBiO55cxGauXosTYe/4JPh+yQHI7rnTUXYbrcNn/tH+uG5r8nwfZKDEf3zpiLkAgty4VzayXAlGnno3UFv+g3h12K5cFn6yXDmjTz07iAWoQOwCCfDIpSH8CLUNA3D4VDXEGQs/rwmwz8Y8hgOh7p+PX51ETYaDd0OTuYYDAaiI0iB75Nc9OyiN40ISS78BZ/Mw8OD6Aj0CkJHhM1mU7eDkzn4Cz4Zvk9y0bOLXlWEjUaDowsJ9Xo90RGkwPdJLoPBQLevx68qQo4G5dTpdERHkALfJ/no1UksQgfgL/hk+D7Jh0VIE+Mv+GRarZboCPRKphfh/f09N2mSVLPZxGg0Eh3D0obDIYtQQt1uV5flACcuwtvb26kPRmIMh0Pe//mCm5sb/rGQlB7dNHER8q+l3G5ubkRHsDTeHysvPbqJRegQXEj3n/H9kReLkCbWbDZ50eQrbm9vub6mxEwtQn5Q5FepVERHsKRyuSw6Ak1Bj26aqAg7nQ5PJNsAi/DvhsMhLi8vRcegKYxGo6m/7UxchCS/fr/PMvxCqVTiHGMbYBHSqxQKBdERLGM0GvH9sAlTipA3UttHu93mCuP/Ua1WcXd3JzoG6WDajmIROtDp6anoCMINh0O+DzZiShFyeSJ7ub29RbFYFB1DqHw+z8+1jUz7s2QROlQul0O/3xcdQ4hOp4OzszPRMUhHhhfh3d0dN/+xocFggN9//91xt0U59d9td8PhcKrzvS8WoVNHDU5wc3PjuPNkR0dHnCVlU9N01UQjQrKvQqGAarUqOoYpCoUCarWa6BhkEI4IaSpHR0e2X2bt+vracaNfpzF0RMgitL/hcIhff/3VthfFbm9v8dtvv/G8oM0ZWoScfuQM9/f3+L//+z9dVvu1kna7jV9//ZUX/Bxgmq7iiJDGut0ufvrpJ9uMDG9vb/Hzzz/brtzpeRwRkm663S5+/vln6eeXNxoN/PLLL/z8OoihI0J+kJzn7u4OP/30Ey4uLkRHebXRaISzszP88ssvGAwGouOQiabpqhkjX5zk9fDwgKOjI9RqNezt7WFm5sWPinC9Xg+Hh4fcqMqhDC1C/lV1tlqthkajge3tbSQSCdFxnjUajXB+fo5cLsfPq4NN87N/sQh5tY36/T5+//13zM/PY29vD4qiiI401ul0cHh4aPv7IOll03QVR4Q0sevra/z73/9GKpVCJpOB3+8XlqXVaqFQKODy8pL3BxIAjgjJRIPBAMViEcViEclkEslkEnNzc6Ydv1aroVKpcPtN+htDR4T8a0tfU6lUUKlU4Pf7sbS0hEQigVAopPtxbm5ucHFxgWq1yot39FXTdJX1LwWS5fV6PeTzeeTzeSiKglgshoWFBYRCIQQCgVe91mAwQKfTwe3tLa6urqBpGk/PkOE4IiRd9ft9XFxc/OUeRJ/PB1VV4fV6MTMzg5mZGXg8HgwGA9zf3+Ph4QH9fh/dbpezQOjNOCIkS7u7u+NybmRpL84scblcZuQgIprKNF010Z4lRER2xhEhEdmCoSNCt5uDRiKyvmm66sX/0+PxvPnFiYjMMk1XcURIRLbAESEROZ6hI0IZ1qEjIpqmq1iERGQLLEIicjxDi9BKi3ASEX3NNF3FESER2QJHhETkeIaOCFmERCQDQ4vQ5/O9+cWJiMwyTVdxREhEtmD4iJDT7IjIytxu91Qjwokus/j9fnQ6nTcfhJwhEAjA7/fD5/NBUZS//AF9+m/PXdl7Wqq/3++Pl1sfDofo9/u4u7tDr9fj54/+0bRby7IIaWIejwfBYBDBYBCqqkJRFCiKAp/Ph9nZWcOPf3t7i7u7u3FpdjodtNtttNttbjvrcKYUoaqqUx2E5OP1ehGLxTA7OzvejU7khu4AMDs7+9XC7fV6aLfbaLVaaDab0DSNW386yLQdxSIkAI8/47m5OUQiEUQiEQSDQdGRXsXv98Pv92N+fn7831qtFm5ubtBoNKBpGvr9vsCEZCRTivC1e9OS9YVCIUQiEczNzSEajdry7oBQKIRQKITl5WUAQKfTQaPRGJcjT/fYx7QdxSJ0CJ/Ph0QigWg0irm5OUdOnQwEAggEAkgmkwAe92DWNA2apqFWq3FPZYmZVoQul4ubvUtGVVUsLi4iHo+bcjFDNoqiYHFxEYuLi9jd3R0XYrVa5ddoibhcLnOKEACCwSBardZUByPjBYNBJBIJJBIJ6c7ziRaNRhGNRrG9vY1Go4FqtYrLy0uWosXp8TmfuAhDoRCL0KIURUE6ncbS0hIvbOnk6aLR1tYWGo0GLi8vUalUMBgMREejL4RCoalf41VFSNYSjUaxvLyMeDwuOoqtPZXixsYGLi4ucH5+jna7LToW/QeL0IFCoRCSySQSiQQXxDCZx+NBOp1GOp1Gq9VCtVpFuVzmV2fBTC1CnmwXS1VVZLNZLC4uio5C+O+tOaurqzg/P8fZ2Rlv4BZEj26auAi9Xi9UVUW32536oDQ5VVWxurqKVColOgo9w+PxjH8+5+fnKBaLLEQTqaoKr9c79eu86maycDjMIjRJIBBANptFIpEQHYUm4PV6sb6+Ph4h5vN5FqIJwuGwLq/z6iK8vLzU5cD0vJmZGWSzWaTTabhcLtFx6JXcbjdWVlaQTCaRy+VQLpd5/62BhBUhGSeVSmFjY0OXoT6J5fV6sbOzg3Q6jePjYzSbTdGRbElIEUYiEXg8Ht5LpbNgMIjd3V1EIhHRUUhnoVAIP/zwA8rlMk5OTvi7oyOPx6Pb78yrJ5yGw2FomqbLwZ3O7XZjbW0Nq6ur/Bpsc6lUCgsLC/jjjz9wfX0tOo4t6PkN9dVr8EejUd0O7mSKouCHH37A2toaS9AhFEXBd999h+3tbf7MdaBnF716RMivb9OLRCL45ptvbLn0Fb1seXkZoVAIv/32G1e8mYKeXfSmESE3c3q71dVVfPjwgSXocHNzc/jXv/7FgcUbud1uXUeEb2q0WCymWwAneffuHTY2Nvi1iAA8rhH5/fff817RN9C7g1iEJtnd3eUHnp51cHDAc++vZIki5A/tddbX1zlFjr7K5XLh22+/5Xz+V9C7g95UhE9bOtLL0uk01tfXRccgi/N4PHj//j3Xk5yAEf3z5qse/Hr8srm5Oezs7IiOQZLwer347rvveDHyBUZ0z5vf8YWFBT1z2M7MzAzevXsnOgZJJhAIYGNjQ3QMSzOie95chNFolHNi/8Hm5iZvkaE3yWQyXAj5K7xeryHXKKYag3OJ+OeFQiFeHKGp7O7uio5gSUZ1DovQAJubm6IjkOTC4TB/v55hySKcn5/n178vzM7O8kIS6WJtbU10BEtRFAXz8/OGvPbUl6f4V+uv0um06AhkE7OzszxX+D+M7Jqpi5CzJf6KfxhIT7w747+M7JqpizAajfIm0P+YnZ3llXTSFWdxPVJV1dD3Qpc7N7nF5CNOkSK9cXuMR0Z3DItQR4FAQHQEshmPxwO/3y86hnBSFGEwGOQQnsggTp/XH41GDX8PdJvUmEwm9XopaQ2HQ9ERyIacXoRmdItuRbi0tOT4ewq5fy0ZwePxiI4gjKIoWFpaMvw4ui5zwVEhEenJrE5hERKRZUlZhIFAgDcUE5Eu4vG4aXdi6L4CJKeYEZEezOwS3YswFovxJlAimko4HDZ18RJD1gTnqJCIpmF2hxhShMlkkvOPiehNVFU1/cKrYbvEZDIZo16aiGxMRHcYVoTLy8vw+XxGvTwR2ZDP58Py8rLpxzV030COConoNUR1huFF6PRpd0Q0GUVR7FmELpcLKysrRh6CiGxiZWUFLpdLyLENLULg8R/H9dSI6J/4/X6hgybDixAAVldXzTgMEUlKdEeYUoTpdJq7cRHRs0KhkPBJGKYUIcA9WonoeVboBtOKMJFIcONzIvqLWCxmiS2BZ8w82Pr6Our1upmHNNXNzQ3+/PNP0THIZm5ubkRHMMz6+rroCAAA18jk9eWPj49RLpfNPCQRWVAqlcLu7q7oGABM/Gr8ZH193dF7MBDR4z4s2WxWdIwx04vQ5/NZ6g0gIvNls1lLzTozvQiBx6l3kUhExKGJSLBIJGK5dQiEFCEAjgqJHMqKv/vCijAajXIeMpHDrKysIBqNio7xN8KKEAA2Nja4kjWRQ6iqio2NDdExniW0CF0uFzY3N0VGICKTbG5uCltd5iVCixB43LtU9DxDIjJWOp229J7nwosQALa2tvgVmcimVFXF1taW6Bj/yBJF6Ha7Lf9GEdHbbG1twe22RNV8lWXSLSwsCF+TjIj0tbq6ioWFBdExXmSZIgQeryLzRmsie4hEIpa9SvwlSxUhAOzs7Fj2yhIRTcblcmFnZ0d0jIlZrghDoRC2t7dFxyCiKWxvb0u1Kr3lihB4vNSeSqVExyCiN0ilUtLdEmfJIgSA3d1dhMNh0TGI6BXC4bBl1hh8DcsWIQDs7e1Z/rI7ET1yu93Y29sTHeNNLN0ywWAQ+/v7omMQ0QT29/cRDAZFx3gTSxch8LjpkxWX7SGi/8pms5bYhOmtLF+EwON2f0tLS6JjENEzlpaWLLEl5zSkKELgcdjNm62JrCUSidji9JU0RQgABwcH8Pv9omMQEQC/34+DgwPRMXQhVRE+vfG8kkwkltvtttXARLpGiUQitvkrRCSrg4MDW52qkq4IgcfFXGW8aZPIDnZ3dy29yOpbSFmEwOM0Hi7zT2Suzc1NW05/lbYIgccdsWS/bE8ki7W1NdvuPCl1EQKPN3JabbNoIrvJZDK2ntggfRECj0uBy7baBZEs0um07bfSsEURAo8LurIMifSVTqelWmD1rWxThADLkEhPTilBwGZFCLAMifTgpBIEANdoNBqJDmGEk5MTFItF0TGIpJPJZGx/TvBLti1CAMjlcsjn86JjEEljbW3N1leHv8bWRQgAhUIBnz9/Fh2DyPI2Nzdte5/gS2xfhABQLpdxfHwsOgaRZe3u7tpyxsikHFGEAFCr1XB4eIjhcCg6CpFlPK0iY7e5w6/lmCIEgEajgcPDQ/R6PdFRiIR7WtbOTqvIvJWjihAAer0eDg8P0Wg0REchEuZpOTu7rCc4LccV4ZOjoyNcXFyIjkFkuqWlJVssr68nxxYhAOTzeeRyOdExiEyTzWa5YtMzHF2EAFCtVnF0dMSLKGRrbrcb+/v7Um+5aSTHFyEAtNtt/PHHH2g2m6KjEOkuHA5jb29P2s3XzcAi/B/Hx8col8uiYxDpJpVKcVuLCbAIv1AqlfDp0yfwbSGZuVwubG9vcwGSCbEIn9FqtfDx40feYkNSikQi2NnZQSgUEh1FGizCf3B6eoqzszPRMYgmtrq6io2NDdExpMMifMHV1RVOTk7Q7XZFRyH6KlVVsbW1hYWFBdFRpMQinMBwOMTJyQlKpZLoKER/87SniNttu3WWTcMifIVarYbPnz9zdEiWoKoqNjc3Hb9ggh5YhK80Go1wenqKQqEgOgo52MrKCjY2NuByuURHsQUW4RtpmoZcLscry2SqSCSCbDaLaDQqOoqtsAinVCwWkcvlMBgMREchG/N4PMhms8hkMqKj2BKLUAf9fh+5XI6zUsgQqVQK6+vr8Pl8oqPYFotQR41GA3/++Sfq9broKGQDsVgM6+vrXDjVBCxCA1SrVeTzebRaLdFRSEKhUAhra2tcKcZELEIDlUolnJ2dcWsAmojf78fq6irnBwvAIjRBoVBAoVBAv98XHYUsSFEUrKysOHYrTStgEZpkNBqhWCyiWCzi7u5OdByyAJ/Ph0wmg0wmw/sBBWMRCnB+fo5iscgZKg6lqioymQyWl5dFR6H/YBEKVKlUUCqVuDK2Q4TDYaTTaSSTSdFR6AssQguo1+solUqo1Wqio5AB4vE40uk0YrGY6Cj0FSxCC+l0OqhUKqhUKrywIjlFUZBMJpFMJhEIBETHoRewCC3q4uIClUoFmqaJjkKvEI1GkUwmsbS0JDoKvQKL0OLa7TYuLy9xeXnJiysWpaoqFhcXsbi4yJ3iJMUilIimaahWq6jVavzqLJiiKIjH40gkElwJxgZYhJK6vr5GrVZDrVbD/f296DiO4PV6EY/HEY/HMT8/LzoO6YhFaAOapuHq6gr1eh3tdlt0HFsJBoOIxWJYWFjgyM/GWIQ20263oWka6vU66vU6hsOh6EhScbvdiMViiMViiEajPOfnECxCm9M0DY1GA5qmodlscgHZL3g8HoTDYUSjUUQiEY76HIpF6DCNRgPNZnP8cNqVaFVVEQ6Hxw+u9UcAi9Dx7u/vcXt7i1arNX60223I/rFwuVwIBoMIhULjx+zsLLxer+hoZEEsQnpWp9MZP7rdLrrdLnq9Hnq9nmXOO7rdbvj9fvj9fqiqClVVEQgExg+iSbEI6dXu7u7Q7/fHz/1+Hw8PD+Pnp8dgMMBwOBw/P33Unp6flp5yuVxwu93weDzj55mZmfFDUZTxs6Io8Pl842ciPbAIicjx3KIDEBGJxiIkIsdjERKR47EIicjxWIRE5HgsQiJyPBYhETkei5CIHI9FSESOxyIkIsf7f8dwJNmTi+QnAAAAAElFTkSuQmCC;" vertex="1" parent="1">
                    <mxGeometry x="354" y="1965" width="255" height="251.04" as="geometry"/>
                </mxCell>
                <mxCell id="11" value="&lt;font style=&quot;font-size: 17px&quot;&gt;Nguyen Van Binh&lt;/font&gt;" style="text;html=1;strokeColor=none;fillColor=none;align=center;verticalAlign=middle;whiteSpace=wrap;rounded=0;fontColor=#333333;" vertex="1" parent="1">
                    <mxGeometry x="397.5" y="2232" width="168" height="30" as="geometry"/>
                </mxCell>
                <mxCell id="13" value="" style="rounded=0;whiteSpace=wrap;html=1;fontSize=24;" vertex="1" parent="1">
                    <mxGeometry x="111" y="2524" width="737" height="294" as="geometry"/>
                </mxCell>
                <mxCell id="15" value="&lt;font style=&quot;font-size: 24px&quot;&gt;V&lt;/font&gt;" style="ellipse;whiteSpace=wrap;html=1;aspect=fixed;fillColor=#1ba1e2;fontColor=#ffffff;strokeColor=#006EAF;" vertex="1" parent="1">
                    <mxGeometry x="155" y="2652.5" width="40" height="40" as="geometry"/>
                </mxCell>
                <mxCell id="16" value="&lt;font style=&quot;font-size: 24px&quot;&gt;V&lt;/font&gt;" style="ellipse;whiteSpace=wrap;html=1;aspect=fixed;fillColor=#1ba1e2;fontColor=#ffffff;strokeColor=#006EAF;" vertex="1" parent="1">
                    <mxGeometry x="435" y="2652.5" width="40" height="40" as="geometry"/>
                </mxCell>
                <mxCell id="17" value="&lt;font style=&quot;font-size: 24px&quot;&gt;V&lt;/font&gt;" style="ellipse;whiteSpace=wrap;html=1;aspect=fixed;fillColor=#1ba1e2;fontColor=#ffffff;strokeColor=#006EAF;" vertex="1" parent="1">
                    <mxGeometry x="718" y="2652.5" width="40" height="40" as="geometry"/>
                </mxCell>
                <mxCell id="18" value="&lt;b style=&quot;&quot;&gt;&lt;font style=&quot;font-size: 36px;&quot; color=&quot;#7ea6e0&quot;&gt;SIGN UP&lt;/font&gt;&lt;/b&gt;" style="text;html=1;strokeColor=none;fillColor=none;align=center;verticalAlign=middle;whiteSpace=wrap;rounded=0;fontSize=24;fontColor=#FFFFFF;" vertex="1" parent="1">
                    <mxGeometry x="358.5" y="2563" width="242" height="46" as="geometry"/>
                </mxCell>
                <mxCell id="21" value="&lt;font color=&quot;#666666&quot; style=&quot;font-size: 14px;&quot;&gt;Update Avatar&lt;/font&gt;" style="text;html=1;strokeColor=none;fillColor=none;align=center;verticalAlign=middle;whiteSpace=wrap;rounded=0;fontSize=24;fontColor=#000000;" vertex="1" parent="1">
                    <mxGeometry x="478" y="2652.5" width="94" height="35" as="geometry"/>
                </mxCell>
                <mxCell id="22" value="&lt;font color=&quot;#666666&quot; style=&quot;font-size: 14px;&quot;&gt;Information&lt;/font&gt;" style="text;html=1;strokeColor=none;fillColor=none;align=center;verticalAlign=middle;whiteSpace=wrap;rounded=0;fontSize=24;fontColor=#000000;" vertex="1" parent="1">
                    <mxGeometry x="193" y="2650" width="94" height="35" as="geometry"/>
                </mxCell>
                <mxCell id="23" value="&lt;font color=&quot;#666666&quot; style=&quot;font-size: 14px;&quot;&gt;Review&lt;/font&gt;" style="text;html=1;strokeColor=none;fillColor=none;align=center;verticalAlign=middle;whiteSpace=wrap;rounded=0;fontSize=24;fontColor=#000000;" vertex="1" parent="1">
                    <mxGeometry x="758" y="2652.5" width="56" height="35" as="geometry"/>
                </mxCell>
                <mxCell id="24" value="" style="endArrow=none;html=1;rounded=0;fontSize=14;fontColor=#666666;" edge="1" parent="1">
                    <mxGeometry width="50" height="50" relative="1" as="geometry">
                        <mxPoint x="308" y="2674" as="sourcePoint"/>
                        <mxPoint x="402" y="2674" as="targetPoint"/>
                    </mxGeometry>
                </mxCell>
                <mxCell id="25" value="" style="endArrow=none;html=1;rounded=0;fontSize=14;fontColor=#666666;" edge="1" parent="1">
                    <mxGeometry width="50" height="50" relative="1" as="geometry">
                        <mxPoint x="598" y="2672" as="sourcePoint"/>
                        <mxPoint x="692" y="2672" as="targetPoint"/>
                    </mxGeometry>
                </mxCell>
                <mxCell id="26" value="&lt;font style=&quot;font-size: 22px&quot; color=&quot;#7ea6e0&quot;&gt;SUCCESS&lt;/font&gt;" style="text;html=1;strokeColor=none;fillColor=none;align=center;verticalAlign=middle;whiteSpace=wrap;rounded=0;fontSize=22;fontColor=#333333;" vertex="1" parent="1">
                    <mxGeometry x="420" y="2733" width="109" height="30" as="geometry"/>
                </mxCell>
            </root>
        </mxGraphModel>
    </diagram>
</mxfile>